<mxfile host="app.diagrams.net" modified="2022-12-01T06:27:34.599Z" agent="5.0 (Windows NT 10.0; Win64; x64) AppleWebKit/537.36 (KHTML, like Gecko) Chrome/107.0.0.0 Safari/537.36" etag="5nF4NT7CCHBR8jZTMcdO" version="20.6.0" type="github">
  <diagram id="C5RBs43oDa-KdzZeNtuy" name="Page-1">
    <mxGraphModel dx="829" dy="653" grid="1" gridSize="10" guides="1" tooltips="1" connect="1" arrows="1" fold="1" page="1" pageScale="1" pageWidth="827" pageHeight="1169" math="0" shadow="0">
      <root>
        <mxCell id="WIyWlLk6GJQsqaUBKTNV-0" />
        <mxCell id="WIyWlLk6GJQsqaUBKTNV-1" parent="WIyWlLk6GJQsqaUBKTNV-0" />
        <mxCell id="QlnFDKeY05NeprsWa2NY-2" style="edgeStyle=orthogonalEdgeStyle;rounded=0;orthogonalLoop=1;jettySize=auto;html=1;exitX=0.5;exitY=1;exitDx=0;exitDy=0;" edge="1" parent="WIyWlLk6GJQsqaUBKTNV-1" source="QlnFDKeY05NeprsWa2NY-0" target="QlnFDKeY05NeprsWa2NY-1">
          <mxGeometry relative="1" as="geometry" />
        </mxCell>
        <mxCell id="QlnFDKeY05NeprsWa2NY-0" value="qms发送质检结果" style="rounded=0;whiteSpace=wrap;html=1;" vertex="1" parent="WIyWlLk6GJQsqaUBKTNV-1">
          <mxGeometry x="350" y="50" width="130" height="40" as="geometry" />
        </mxCell>
        <mxCell id="QlnFDKeY05NeprsWa2NY-4" style="edgeStyle=orthogonalEdgeStyle;rounded=0;orthogonalLoop=1;jettySize=auto;html=1;exitX=0.5;exitY=1;exitDx=0;exitDy=0;entryX=0.5;entryY=0;entryDx=0;entryDy=0;" edge="1" parent="WIyWlLk6GJQsqaUBKTNV-1" source="QlnFDKeY05NeprsWa2NY-1" target="QlnFDKeY05NeprsWa2NY-3">
          <mxGeometry relative="1" as="geometry" />
        </mxCell>
        <mxCell id="QlnFDKeY05NeprsWa2NY-1" value="写入中间表QMS_Q2W_QCRESULT" style="rounded=0;whiteSpace=wrap;html=1;" vertex="1" parent="WIyWlLk6GJQsqaUBKTNV-1">
          <mxGeometry x="350" y="120" width="130" height="40" as="geometry" />
        </mxCell>
        <mxCell id="QlnFDKeY05NeprsWa2NY-6" style="edgeStyle=orthogonalEdgeStyle;rounded=0;orthogonalLoop=1;jettySize=auto;html=1;exitX=0.5;exitY=1;exitDx=0;exitDy=0;" edge="1" parent="WIyWlLk6GJQsqaUBKTNV-1" source="QlnFDKeY05NeprsWa2NY-3" target="QlnFDKeY05NeprsWa2NY-5">
          <mxGeometry relative="1" as="geometry" />
        </mxCell>
        <mxCell id="QlnFDKeY05NeprsWa2NY-3" value="获取出中间表数据qms2WQcResultList" style="rounded=0;whiteSpace=wrap;html=1;" vertex="1" parent="WIyWlLk6GJQsqaUBKTNV-1">
          <mxGeometry x="350" y="200" width="130" height="40" as="geometry" />
        </mxCell>
        <mxCell id="QlnFDKeY05NeprsWa2NY-8" style="edgeStyle=orthogonalEdgeStyle;rounded=0;orthogonalLoop=1;jettySize=auto;html=1;exitX=0.5;exitY=1;exitDx=0;exitDy=0;" edge="1" parent="WIyWlLk6GJQsqaUBKTNV-1" source="QlnFDKeY05NeprsWa2NY-5" target="QlnFDKeY05NeprsWa2NY-7">
          <mxGeometry relative="1" as="geometry" />
        </mxCell>
        <mxCell id="QlnFDKeY05NeprsWa2NY-5" value="根据QC号进行分组,对每个QC号分别处理" style="rounded=0;whiteSpace=wrap;html=1;" vertex="1" parent="WIyWlLk6GJQsqaUBKTNV-1">
          <mxGeometry x="350" y="280" width="130" height="40" as="geometry" />
        </mxCell>
        <mxCell id="QlnFDKeY05NeprsWa2NY-10" style="edgeStyle=orthogonalEdgeStyle;rounded=0;orthogonalLoop=1;jettySize=auto;html=1;exitX=0.5;exitY=1;exitDx=0;exitDy=0;entryX=0.5;entryY=0;entryDx=0;entryDy=0;" edge="1" parent="WIyWlLk6GJQsqaUBKTNV-1" source="QlnFDKeY05NeprsWa2NY-7" target="QlnFDKeY05NeprsWa2NY-9">
          <mxGeometry relative="1" as="geometry" />
        </mxCell>
        <mxCell id="QlnFDKeY05NeprsWa2NY-7" value="根据QC获取到仓库" style="rounded=0;whiteSpace=wrap;html=1;" vertex="1" parent="WIyWlLk6GJQsqaUBKTNV-1">
          <mxGeometry x="350" y="360" width="130" height="40" as="geometry" />
        </mxCell>
        <mxCell id="QlnFDKeY05NeprsWa2NY-12" style="edgeStyle=orthogonalEdgeStyle;rounded=0;orthogonalLoop=1;jettySize=auto;html=1;exitX=0.5;exitY=1;exitDx=0;exitDy=0;entryX=0.5;entryY=0;entryDx=0;entryDy=0;" edge="1" parent="WIyWlLk6GJQsqaUBKTNV-1" source="QlnFDKeY05NeprsWa2NY-9" target="QlnFDKeY05NeprsWa2NY-11">
          <mxGeometry relative="1" as="geometry" />
        </mxCell>
        <mxCell id="QlnFDKeY05NeprsWa2NY-9" value="切换数据源到该仓库" style="rounded=0;whiteSpace=wrap;html=1;" vertex="1" parent="WIyWlLk6GJQsqaUBKTNV-1">
          <mxGeometry x="350" y="440" width="130" height="40" as="geometry" />
        </mxCell>
        <mxCell id="QlnFDKeY05NeprsWa2NY-11" value="写入质检结果业务表QMSQCRESULT" style="rounded=0;whiteSpace=wrap;html=1;" vertex="1" parent="WIyWlLk6GJQsqaUBKTNV-1">
          <mxGeometry x="350" y="520" width="130" height="40" as="geometry" />
        </mxCell>
      </root>
    </mxGraphModel>
  </diagram>
</mxfile>
